<svg xmlns="http://www.w3.org/2000/svg" viewBox="0 0 425.2 166.3"><path d="M425.2 68.7h-81.8v17H375v80.6h18.2V85.6h32zm-87.5 0h-22l-21.5 32-21.5-32H250l33.5 48-34.7 49.6H271l23-34 22.8 34h22.8l-35-50zM241 166.3v-17h-50v-24h45v-17h-45V85.7h47.4v-17h-65.6v97.7zm-89-97.6h-18v67l-41.7-67h-21v97.6h18v-69l43.4 69H152zM67.2 51.3l-10.6-17h-21V132h18V51.3zm49-17H98.5v17h18zm86.5 17v-17H134v17zm45.8 0l-11.4-17h-22.5l11.8 17zm41.7 0l11.8-17h-22l-11.4 17zm99.3-17h-81.7v17h81.7zM31.5 17L21 0H0v97.6h17.8V17zm49-17H62.8v17h18zM167 17V0H98.4v17zm45.8 0L201.3 0h-22.8l11.8 17zm41.7 0l12-17H244l-11 17zM354 0h-82v17h82z"/></svg>