<svg id="Ebene_1" xmlns="http://www.w3.org/2000/svg" viewBox="0 0 320 160"><style>.st0{enable-background:new}.st1{fill:#fff}</style><title>technology</title><g id="Module_28_500plus_1024" transform="translate(-741 -598)"><g id="Module_28_500plus_1024_1_" transform="translate(-741 -598)"><g id="_x32_5creative"><g class="st0"><path class="st1" d="M923.7 788.6l-4.5-.8c.3-5 3.8-8.6 8.8-8.6 4.6 0 8.5 3.1 8.5 8.2 0 4.1-3 6.2-7.6 7.7-4.6 1.6-4.7 2.6-4.7 5.2h12.5v4.7H919v-4.8c0-4.8 2.2-6.9 7.2-8.7 2.6-.9 5.4-1.9 5.4-4.1 0-2.1-1.1-3.5-3.7-3.5-2.8 0-3.9 2-4.2 4.7zM947.4 794.7l-4.4-1.4 2.1-13.5h13.2v4.7h-9l-.6 4.5s1.3-.4 3-.4c5 0 8.7 3.1 8.7 8.5s-3.7 8.5-9.1 8.5c-5.1 0-8.4-3.1-9.1-7.5l4.5-1.1c.4 2.3 1.5 3.9 4.6 3.9 1 0 4.2-.3 4.2-3.9 0-3.5-2.9-4.2-4.2-4.2-1.4 0-3 .3-3.9 1.9zM965 792c0-8.7 3.7-12.7 9.3-12.7 5.6 0 9.3 4.1 9.3 12.7 0 9.6-3.7 13.5-9.3 13.5-5.5 0-9.3-3.9-9.3-13.5zm9.3-8.1c-3.1 0-4.5 2.1-4.5 8.1 0 6.9 1.3 8.9 4.5 8.9 3.1 0 4.5-1.9 4.5-8.9 0-6-1.3-8.1-4.5-8.1zM997.6 796.1v5.5h-4.9v-5.5h-5.4v-4.7h5.4v-5.5h4.9v5.5h5.4v4.7h-5.4z" transform="translate(681 458)"/></g><g class="st0"><path class="st1" d="M855.9 831h8.3c5.3 0 9.3 3.4 9.3 12.6 0 9.3-4 12.6-9.3 12.6h-8.3V831zm8.2 23.1c4.3 0 6.9-2.1 6.9-10.4 0-8.4-2.7-10.4-6.9-10.4h-5.9v20.9h5.9zM879.6 831h14.8v2.2H882v8.7h11.3v2.2H882v10h12.5v2.2h-14.8V831zM897.9 831h2.5l7.3 22.3L915 831h2.5l-8.5 25.2h-2.6l-8.5-25.2zM922.1 831h14.8v2.2h-12.5v8.7h11.3v2.2h-11.3v10h12.5v2.2h-14.8V831zM942.9 831h2.3v23H957v2.2h-14.1V831zM961.3 843.6c0-9.4 3.6-13.1 8.9-13.1 5.4 0 8.9 3.8 8.9 13.1 0 9.4-3.6 13.1-8.9 13.1-5.3.1-8.9-3.7-8.9-13.1zm15.4 0c0-8.2-2.2-11-6.6-11-4.2 0-6.6 2.8-6.6 11 0 8.1 2.3 11 6.6 11 4.4 0 6.6-2.8 6.6-11zM985.5 831h9c4 0 7.3 3.2 7.3 7.3s-3 7.4-7.3 7.4h-6.6v10.5h-2.3V831zm8.9 12.6c2.9 0 4.9-2.4 4.9-5.2 0-3.4-2.5-5.2-4.9-5.2h-6.6v10.4h6.6zM1006.5 831h14.8v2.2h-12.5v8.7h11.3v2.2h-11.3v10h12.5v2.2h-14.8V831zM1027.3 831h8.5c3.8 0 7.1 3 7.1 7 0 3.7-2.2 5.9-5.1 6.7l5.4 11.4h-2.5l-5.3-11.1h-5.8v11.1h-2.3V831zm8.5 11.9c1.4 0 4.8-.7 4.8-4.8 0-3.2-2.4-4.9-4.8-4.9h-6.2v9.8h6.2zM1050 847.9c.3 2.2 1.3 6.7 7.4 6.7 3.4 0 6.4-1.5 6.4-5.2 0-3.2-1.6-4.6-6.2-5.8-4.5-1.2-8-2.8-8-7 0-3.2 2.6-6.1 7.7-6.1 4.2 0 7.1 2.4 8.1 6l-2.1.4c-.4-1.5-1.9-4.3-5.9-4.3-3.5 0-5.4 1.8-5.4 4 0 3.2 3.5 4 6.5 4.9 2.8.9 7.8 2.1 7.8 7.9 0 4.3-3.4 7.3-8.7 7.3-7.3 0-9.1-5.1-9.5-8.5l1.9-.3z" transform="translate(681 458)"/></g></g></g></g></svg>
