<svg id="Ebene_1" data-name="Ebene 1" xmlns="http://www.w3.org/2000/svg" width="320" height="160" viewBox="0 0 320 160"><title>500</title><g id="Modules"><g id="Module_28_500plus_1024" data-name="Module 28 500plus 1024"><g id="_500_" data-name="500+"><path d="M66.12,66.6c3.68,0,12,2.05,12,12,0,10.27-9.09,11-12,11-8.79,0-11.75-4.52-13-11.19L40.27,81.48c2,12.52,11.24,21.46,25.85,21.46,15.12,0,25.74-8.93,25.74-24.33S81.23,54.38,67.14,54.38a29.5,29.5,0,0,0-8.48,1.23L60.5,42.89H86V29.54H48.54l-6,38.6L54.88,72C57.53,67.42,62,66.6,66.12,66.6Zm77.64-2.26c0,19.81-3.78,25.25-12.67,25.25s-12.67-5.54-12.67-25.25c0-17,3.78-23,12.67-23s12.67,6.06,12.67,23Zm-12.67,38.6c15.83,0,26.46-11.09,26.46-38.6C157.55,39.6,146.92,28,131.09,28s-26.46,11.6-26.46,36.34c0,27.51,10.62,38.6,26.46,38.6Zm80.4-38.6c0,19.81-3.78,25.25-12.67,25.25s-12.67-5.54-12.67-25.25c0-17,3.78-23,12.67-23s12.67,6.06,12.67,23Zm-12.67,38.6c15.83,0,26.46-11.09,26.46-38.6C225.28,39.6,214.66,28,198.82,28s-26.46,11.6-26.46,36.34c0,27.51,10.62,38.6,26.46,38.6Zm80.91-27V62.6H264.51V47H250.72V62.6H235.5V75.94h15.22V91.65h13.79V75.94Z" fill="#4502da"/><path id="TALENTS" d="M67.77,119.28H57.27v2.45h4V132.5h2.6V121.74h4ZM97.19,132.5H100L95.3,119.28H93L88.32,132.5H91l.79-2.3H96.4Zm-3.08-9.29,1.46,4.53H92.66Zm29.11-3.93V132.5h8.17V130h-5.57V119.28ZM163.27,130h-5.94v-3.27h5.4v-2.45h-5.4v-2.59h5.94v-2.45h-8.54V132.5h8.54Zm31.11-10.76v8.48l-4.78-8.48h-2.41V132.5h2.6V124l4.84,8.48H197V119.28Zm36.47,0h-10.5v2.45h4V132.5h2.6V121.74h4Zm22,8.61c.21,2.1,1.21,4.89,5.34,4.89,3,0,5-1.74,5-4.19,0-3.1-2.41-3.76-4.34-4.36-1.43-.42-2.58-.77-2.58-1.59,0-.6.66-1.19,1.85-1.19a2.32,2.32,0,0,1,2.35,1.7l2.41-.51a4.62,4.62,0,0,0-4.76-3.64c-2.93,0-4.45,1.77-4.45,3.64,0,2.45,2,3.32,4.45,3.95,1.75.45,2.47,1,2.47,2,0,1.23-1.12,1.74-2.35,1.74-2.39,0-2.78-1.72-2.93-2.87Z" fill="#4502da"/></g></g></g></svg>