<svg data-name="Ebene 1" xmlns="http://www.w3.org/2000/svg" width="320" height="160" viewBox="0 0 320 160"><title>500</title><g data-name="Module 28 500plus 1024"><g data-name="500+" fill="#4502da"><path d="M66.12 66.6c3.68 0 12 2.05 12 12 0 10.27-9.09 11-12 11-8.79 0-11.75-4.52-13-11.19l-12.85 3.07c2 12.52 11.24 21.46 25.85 21.46 15.12 0 25.74-8.93 25.74-24.33S81.23 54.38 67.14 54.38a29.5 29.5 0 0 0-8.48 1.23l1.84-12.72H86V29.54H48.54l-6 38.6L54.88 72c2.65-4.58 7.12-5.4 11.24-5.4zm77.64-2.26c0 19.81-3.78 25.25-12.67 25.25s-12.67-5.54-12.67-25.25c0-17 3.78-23 12.67-23s12.67 6.06 12.67 23zm-12.67 38.6c15.83 0 26.46-11.09 26.46-38.6 0-24.74-10.63-36.34-26.46-36.34s-26.46 11.6-26.46 36.34c0 27.51 10.62 38.6 26.46 38.6zm80.4-38.6c0 19.81-3.78 25.25-12.67 25.25s-12.67-5.54-12.67-25.25c0-17 3.78-23 12.67-23s12.67 6.06 12.67 23zm-12.67 38.6c15.83 0 26.46-11.09 26.46-38.6 0-24.74-10.62-36.34-26.46-36.34s-26.46 11.6-26.46 36.34c0 27.51 10.62 38.6 26.46 38.6zm80.91-27V62.6h-15.22V47h-13.79v15.6H235.5v13.34h15.22v15.71h13.79V75.94zM67.77 119.28h-10.5v2.45h4v10.77h2.6v-10.76h4zm29.42 13.22H100l-4.7-13.22H93l-4.68 13.22H91l.79-2.3h4.61zm-3.08-9.29l1.46 4.53h-2.91zm29.11-3.93v13.22h8.17V130h-5.57v-10.72zM163.27 130h-5.94v-3.27h5.4v-2.45h-5.4v-2.59h5.94v-2.45h-8.54v13.26h8.54zm31.11-10.76v8.48l-4.78-8.48h-2.41v13.26h2.6V124l4.84 8.48H197v-13.2zm36.47 0h-10.5v2.45h4v10.81h2.6v-10.76h4zm22 8.61c.21 2.1 1.21 4.89 5.34 4.89 3 0 5-1.74 5-4.19 0-3.1-2.41-3.76-4.34-4.36-1.43-.42-2.58-.77-2.58-1.59 0-.6.66-1.19 1.85-1.19a2.32 2.32 0 0 1 2.35 1.7l2.41-.51a4.62 4.62 0 0 0-4.76-3.64c-2.93 0-4.45 1.77-4.45 3.64 0 2.45 2 3.32 4.45 3.95 1.75.45 2.47 1 2.47 2 0 1.23-1.12 1.74-2.35 1.74-2.39 0-2.78-1.72-2.93-2.87z"/></g></g></svg>