<?xml version="1.0" encoding="utf-8"?>
<!-- Generator: Adobe Illustrator 21.0.2, SVG Export Plug-In . SVG Version: 6.00 Build 0)  -->
<svg version="1.1" id="Ebene_1" xmlns="http://www.w3.org/2000/svg" xmlns:xlink="http://www.w3.org/1999/xlink" x="0px" y="0px"
	 viewBox="0 0 320 160" style="enable-background:new 0 0 320 160;" xml:space="preserve">
<style type="text/css">
	.st0{enable-background:new    ;}
	.st1{fill:#FFFFFF;}
</style>
<title>consulting</title>
<g id="Modules">
	<g id="Module_28_500plus_1024" transform="translate(-67.000000, -598.000000)">
		<g id="_x32_5creative" transform="translate(0.000000, 458.000000)">
			<g class="st0">
				<path class="st1" d="M204.1,205h-18.5v-4.7h7v-14.9l-5.4,3.4v-5.4l5.8-3.6h4.5v20.5h6.7V205z"/>
				<path class="st1" d="M212.9,188.7l-4.5-0.8c0.3-5,3.8-8.6,8.8-8.6c4.6,0,8.5,3.1,8.5,8.2c0,4.1-3,6.2-7.6,7.7
					c-4.6,1.6-4.7,2.6-4.7,5.2H226v4.7h-17.7v-4.8c0-4.8,2.2-6.9,7.2-8.7c2.6-0.9,5.4-1.9,5.4-4.1c0-2.1-1.1-3.5-3.7-3.5
					C214.3,183.9,213.2,185.9,212.9,188.7z"/>
				<path class="st1" d="M236.6,194.7l-4.4-1.4l2.1-13.5h13.2v4.7h-9l-0.6,4.5c0,0,1.3-0.4,3-0.4c5,0,8.7,3.1,8.7,8.5
					s-3.7,8.5-9.1,8.5c-5.1,0-8.4-3.1-9.1-7.5l4.5-1.1c0.4,2.3,1.5,3.9,4.6,3.9c1,0,4.2-0.3,4.2-3.9c0-3.5-2.9-4.2-4.2-4.2
					C239.1,192.8,237.6,193.1,236.6,194.7z"/>
				<path class="st1" d="M262.8,196.1v5.5H258v-5.5h-5.4v-4.7h5.4v-5.5h4.9v5.5h5.4v4.7H262.8z"/>
			</g>
			<g class="st0">
				<path class="st1" d="M127.6,249.5c-0.8,4.5-4,7.3-8.5,7.3c-5.3,0-8.9-3.8-8.9-13.1c0-9.4,3.6-13.1,8.9-13.1
					c4.5,0,7.6,2.8,8.5,7.3l-2.1,0.4c-0.6-3.1-2.4-5.5-6.4-5.5c-4.2,0-6.6,2.8-6.6,11c0,8.1,2.3,11,6.6,11c4,0,5.8-2.4,6.4-5.5
					L127.6,249.5z"/>
				<path class="st1" d="M132.7,243.6c0-9.4,3.6-13.1,8.9-13.1c5.4,0,8.9,3.8,8.9,13.1c0,9.4-3.6,13.1-8.9,13.1
					C136.3,256.8,132.7,253,132.7,243.6z M148.2,243.6c0-8.2-2.2-11-6.6-11c-4.2,0-6.6,2.8-6.6,11c0,8.1,2.3,11,6.6,11
					C145.9,254.6,148.2,251.8,148.2,243.6z"/>
				<path class="st1" d="M156.9,231h2.4l11.4,20.7V231h2.4v25.2h-2.4l-11.3-20.8v20.8h-2.4V231z"/>
				<path class="st1" d="M181,247.9c0.3,2.2,1.3,6.7,7.4,6.7c3.4,0,6.4-1.5,6.4-5.2c0-3.2-1.6-4.6-6.2-5.8c-4.5-1.2-8-2.8-8-7
					c0-3.2,2.6-6.1,7.7-6.1c4.2,0,7.1,2.4,8.1,6l-2.1,0.4c-0.4-1.5-1.9-4.3-5.9-4.3c-3.5,0-5.4,1.8-5.4,4c0,3.2,3.5,4,6.5,4.9
					c2.8,0.9,7.8,2.1,7.8,7.9c0,4.3-3.4,7.3-8.7,7.3c-7.3,0-9.1-5.1-9.5-8.5L181,247.9z"/>
				<path class="st1" d="M202.4,231h2.3v16.9c0,3.9,2.3,6.7,6.6,6.7c4.4,0,6.6-2.8,6.6-6.6v-17h2.3v16.7c0,5.2-3.6,9-9,9
					c-5.3,0-8.9-3.8-8.9-9V231z"/>
				<path class="st1" d="M226.8,231h2.3v23h11.8v2.2h-14.1V231z"/>
				<path class="st1" d="M247.6,233.2h-8.3V231h18.9v2.2H250v23h-2.3V233.2z"/>
				<path class="st1" d="M266.8,231h2.4l8.7,25.2h-2.4l-1.9-6h-11.2l-2,6H258L266.8,231z M273,248.4l-5-14.8l-4.9,14.8H273z"/>
				<path class="st1" d="M282.7,231h2.4l11.4,20.7V231h2.4v25.2h-2.4L285,235.5v20.8h-2.4V231z"/>
				<path class="st1" d="M312,233.2h-8.3V231h18.9v2.2h-8.3v23H312V233.2z"/>
				<path class="st1" d="M327.2,247.9c0.3,2.2,1.3,6.7,7.4,6.7c3.4,0,6.4-1.5,6.4-5.2c0-3.2-1.6-4.6-6.2-5.8c-4.5-1.2-8-2.8-8-7
					c0-3.2,2.6-6.1,7.7-6.1c4.2,0,7.1,2.4,8.1,6l-2.1,0.4c-0.4-1.5-1.9-4.3-5.9-4.3c-3.5,0-5.4,1.8-5.4,4c0,3.2,3.5,4,6.5,4.9
					c2.8,0.9,7.8,2.1,7.8,7.9c0,4.3-3.4,7.3-8.7,7.3c-7.3,0-9.1-5.1-9.5-8.5L327.2,247.9z"/>
			</g>
		</g>
	</g>
</g>
</svg>
