<svg id="Ebene_1" xmlns="http://www.w3.org/2000/svg" viewBox="0 0 320 160"><style>.st0{enable-background:new}.st1{fill:#fff}</style><title>consulting</title><g id="Modules"><g id="Module_28_500plus_1024" transform="translate(-67 -598)"><g id="_x32_5creative"><g class="st0"><path class="st1" d="M204.1 205h-18.5v-4.7h7v-14.9l-5.4 3.4v-5.4l5.8-3.6h4.5v20.5h6.7v4.7zM212.9 188.7l-4.5-.8c.3-5 3.8-8.6 8.8-8.6 4.6 0 8.5 3.1 8.5 8.2 0 4.1-3 6.2-7.6 7.7-4.6 1.6-4.7 2.6-4.7 5.2H226v4.7h-17.7v-4.8c0-4.8 2.2-6.9 7.2-8.7 2.6-.9 5.4-1.9 5.4-4.1 0-2.1-1.1-3.5-3.7-3.5-2.9-.1-4 1.9-4.3 4.7zM236.6 194.7l-4.4-1.4 2.1-13.5h13.2v4.7h-9l-.6 4.5s1.3-.4 3-.4c5 0 8.7 3.1 8.7 8.5s-3.7 8.5-9.1 8.5c-5.1 0-8.4-3.1-9.1-7.5l4.5-1.1c.4 2.3 1.5 3.9 4.6 3.9 1 0 4.2-.3 4.2-3.9 0-3.5-2.9-4.2-4.2-4.2-1.4 0-2.9.3-3.9 1.9zM262.8 196.1v5.5H258v-5.5h-5.4v-4.7h5.4v-5.5h4.9v5.5h5.4v4.7h-5.5z" transform="translate(0 458)"/></g><g class="st0"><path class="st1" d="M127.6 249.5c-.8 4.5-4 7.3-8.5 7.3-5.3 0-8.9-3.8-8.9-13.1 0-9.4 3.6-13.1 8.9-13.1 4.5 0 7.6 2.8 8.5 7.3l-2.1.4c-.6-3.1-2.4-5.5-6.4-5.5-4.2 0-6.6 2.8-6.6 11 0 8.1 2.3 11 6.6 11 4 0 5.8-2.4 6.4-5.5l2.1.2zM132.7 243.6c0-9.4 3.6-13.1 8.9-13.1 5.4 0 8.9 3.8 8.9 13.1 0 9.4-3.6 13.1-8.9 13.1-5.3.1-8.9-3.7-8.9-13.1zm15.5 0c0-8.2-2.2-11-6.6-11-4.2 0-6.6 2.8-6.6 11 0 8.1 2.3 11 6.6 11s6.6-2.8 6.6-11zM156.9 231h2.4l11.4 20.7V231h2.4v25.2h-2.4l-11.3-20.8v20.8H157V231zM181 247.9c.3 2.2 1.3 6.7 7.4 6.7 3.4 0 6.4-1.5 6.4-5.2 0-3.2-1.6-4.6-6.2-5.8-4.5-1.2-8-2.8-8-7 0-3.2 2.6-6.1 7.7-6.1 4.2 0 7.1 2.4 8.1 6l-2.1.4c-.4-1.5-1.9-4.3-5.9-4.3-3.5 0-5.4 1.8-5.4 4 0 3.2 3.5 4 6.5 4.9 2.8.9 7.8 2.1 7.8 7.9 0 4.3-3.4 7.3-8.7 7.3-7.3 0-9.1-5.1-9.5-8.5l1.9-.3zM202.4 231h2.3v16.9c0 3.9 2.3 6.7 6.6 6.7 4.4 0 6.6-2.8 6.6-6.6v-17h2.3v16.7c0 5.2-3.6 9-9 9-5.3 0-8.9-3.8-8.9-9V231zM226.8 231h2.3v23h11.8v2.2h-14.1V231zM247.6 233.2h-8.3V231h18.9v2.2H250v23h-2.3v-23zM266.8 231h2.4l8.7 25.2h-2.4l-1.9-6h-11.2l-2 6H258l8.8-25.2zm6.2 17.4l-5-14.8-4.9 14.8h9.9zM282.7 231h2.4l11.4 20.7V231h2.4v25.2h-2.4L285 235.5v20.8h-2.4V231zM312 233.2h-8.3V231h18.9v2.2h-8.3v23H312v-23zM327.2 247.9c.3 2.2 1.3 6.7 7.4 6.7 3.4 0 6.4-1.5 6.4-5.2 0-3.2-1.6-4.6-6.2-5.8-4.5-1.2-8-2.8-8-7 0-3.2 2.6-6.1 7.7-6.1 4.2 0 7.1 2.4 8.1 6l-2.1.4c-.4-1.5-1.9-4.3-5.9-4.3-3.5 0-5.4 1.8-5.4 4 0 3.2 3.5 4 6.5 4.9 2.8.9 7.8 2.1 7.8 7.9 0 4.3-3.4 7.3-8.7 7.3-7.3 0-9.1-5.1-9.5-8.5l1.9-.3z" transform="translate(0 458)"/></g></g></g></g></svg>
