<svg id="Ebene_1" xmlns="http://www.w3.org/2000/svg" viewBox="0 0 320 160"><style>.st0{enable-background:new}.st1{fill:#fff}</style><title>Unbenannt-4</title><g id="Module_28_500plus_1024" transform="translate(-433 -1050)"><g id="_x32_5creative"><g class="st0"><path class="st1" d="M223.6 207H205v-4.7h7v-14.9l-5.4 3.4v-5.4l5.8-3.6h4.5v20.5h6.7v4.7zM232.4 190.6l-4.5-.8c.3-5 3.8-8.6 8.8-8.6 4.6 0 8.5 3.1 8.5 8.2 0 4.1-3 6.2-7.6 7.7-4.6 1.6-4.7 2.6-4.7 5.2h12.5v4.7h-17.7v-4.8c0-4.8 2.2-6.9 7.2-8.7 2.6-.9 5.4-1.9 5.4-4.1 0-2.1-1.1-3.5-3.7-3.5-2.8 0-3.9 2-4.2 4.7zM256.1 196.7l-4.4-1.4 2.1-13.5H267v4.7h-9l-.6 4.5s1.3-.4 3-.4c5 0 8.7 3.1 8.7 8.5s-3.7 8.5-9.1 8.5c-5.1 0-8.4-3.1-9.1-7.5l4.5-1.1c.4 2.3 1.5 3.9 4.6 3.9 1 0 4.2-.3 4.2-3.9 0-3.5-2.9-4.2-4.2-4.2-1.4 0-3 .3-3.9 1.9zM282.3 198.1v5.5h-4.9v-5.5H272v-4.7h5.4v-5.5h4.9v5.5h5.4v4.7h-5.4z" transform="translate(341 910)"/></g><g class="st0"><path class="st1" d="M181.4 251.5c-.8 4.5-4 7.3-8.5 7.3-5.3 0-8.9-3.8-8.9-13.1 0-9.4 3.6-13.1 8.9-13.1 4.5 0 7.6 2.8 8.5 7.3l-2.1.4c-.6-3.1-2.4-5.5-6.4-5.5-4.2 0-6.6 2.8-6.6 11 0 8.1 2.3 11 6.6 11 4 0 5.8-2.4 6.4-5.5l2.1.2zM187.2 233h8.5c3.8 0 7.1 3 7.1 7 0 3.7-2.2 5.9-5.1 6.7l5.4 11.4h-2.5l-5.3-11.1h-5.8v11.1h-2.3V233zm8.5 11.9c1.4 0 4.8-.7 4.8-4.8 0-3.2-2.4-4.9-4.8-4.9h-6.2v9.8h6.2zM209.1 233h14.8v2.2h-12.5v8.7h11.3v2.2h-11.3v10h12.5v2.2h-14.8V233zM236.4 233h2.4l8.7 25.2h-2.4l-1.9-6H232l-2 6h-2.3l8.7-25.2zm6.1 17.3l-5-14.8-4.9 14.8h9.9zM255.5 235.2h-8.3V233h18.9v2.2h-8.3v23h-2.3v-23zM271.1 233h2.3v25.2h-2.3V233zM278 233h2.5l7.3 22.3 7.3-22.3h2.5l-8.5 25.2h-2.6L278 233zM302.2 233H317v2.2h-12.5v8.7h11.3v2.2h-11.3v10H317v2.2h-14.8V233zM323.9 249.9c.3 2.2 1.3 6.7 7.4 6.7 3.4 0 6.4-1.5 6.4-5.2 0-3.2-1.6-4.6-6.2-5.8-4.5-1.2-8-2.8-8-7 0-3.2 2.6-6.1 7.7-6.1 4.2 0 7.1 2.4 8.1 6l-2.1.4c-.4-1.5-1.9-4.3-5.9-4.3-3.5 0-5.4 1.8-5.4 4 0 3.2 3.5 4 6.5 4.9 2.8.9 7.8 2.1 7.8 7.9 0 4.3-3.4 7.3-8.7 7.3-7.3 0-9.1-5.1-9.5-8.5l1.9-.3z" transform="translate(341 910)"/></g></g></g></svg>
