<?xml version="1.0" encoding="utf-8"?>
<!-- Generator: Adobe Illustrator 21.0.2, SVG Export Plug-In . SVG Version: 6.00 Build 0)  -->
<svg version="1.1" id="Ebene_1" xmlns="http://www.w3.org/2000/svg" xmlns:xlink="http://www.w3.org/1999/xlink" x="0px" y="0px"
	 viewBox="0 0 320 160" style="enable-background:new 0 0 320 160;" xml:space="preserve">
<style type="text/css">
	.st0{enable-background:new    ;}
	.st1{fill:#FFFFFF;}
</style>
<title>Unbenannt-4</title>
<g id="Module_28_500plus_1024" transform="translate(-433.000000, -1050.000000)">
	<g id="_x32_5creative" transform="translate(341.000000, 910.000000)">
		<g class="st0">
			<path class="st1" d="M223.6,207H205v-4.7h7v-14.9l-5.4,3.4v-5.4l5.8-3.6h4.5v20.5h6.7V207z"/>
			<path class="st1" d="M232.4,190.6l-4.5-0.8c0.3-5,3.8-8.6,8.8-8.6c4.6,0,8.5,3.1,8.5,8.2c0,4.1-3,6.2-7.6,7.7
				c-4.6,1.6-4.7,2.6-4.7,5.2h12.5v4.7h-17.7v-4.8c0-4.8,2.2-6.9,7.2-8.7c2.6-0.9,5.4-1.9,5.4-4.1c0-2.1-1.1-3.5-3.7-3.5
				C233.8,185.9,232.7,187.9,232.4,190.6z"/>
			<path class="st1" d="M256.1,196.7l-4.4-1.4l2.1-13.5h13.2v4.7h-9l-0.6,4.5c0,0,1.3-0.4,3-0.4c5,0,8.7,3.1,8.7,8.5
				s-3.7,8.5-9.1,8.5c-5.1,0-8.4-3.1-9.1-7.5l4.5-1.1c0.4,2.3,1.5,3.9,4.6,3.9c1,0,4.2-0.3,4.2-3.9c0-3.5-2.9-4.2-4.2-4.2
				C258.6,194.8,257,195.1,256.1,196.7z"/>
			<path class="st1" d="M282.3,198.1v5.5h-4.9v-5.5h-5.4v-4.7h5.4v-5.5h4.9v5.5h5.4v4.7H282.3z"/>
		</g>
		<g class="st0">
			<path class="st1" d="M181.4,251.5c-0.8,4.5-4,7.3-8.5,7.3c-5.3,0-8.9-3.8-8.9-13.1c0-9.4,3.6-13.1,8.9-13.1
				c4.5,0,7.6,2.8,8.5,7.3l-2.1,0.4c-0.6-3.1-2.4-5.5-6.4-5.5c-4.2,0-6.6,2.8-6.6,11c0,8.1,2.3,11,6.6,11c4,0,5.8-2.4,6.4-5.5
				L181.4,251.5z"/>
			<path class="st1" d="M187.2,233h8.5c3.8,0,7.1,3,7.1,7c0,3.7-2.2,5.9-5.1,6.7l5.4,11.4h-2.5l-5.3-11.1h-5.8v11.1h-2.3V233z
				 M195.7,244.9c1.4,0,4.8-0.7,4.8-4.8c0-3.2-2.4-4.9-4.8-4.9h-6.2v9.8H195.7z"/>
			<path class="st1" d="M209.1,233h14.8v2.2h-12.5v8.7h11.3v2.2h-11.3v10h12.5v2.2h-14.8V233z"/>
			<path class="st1" d="M236.4,233h2.4l8.7,25.2h-2.4l-1.9-6h-11.2l-2,6h-2.3L236.4,233z M242.5,250.3l-5-14.8l-4.9,14.8H242.5z"/>
			<path class="st1" d="M255.5,235.2h-8.3V233h18.9v2.2h-8.3v23h-2.3V235.2z"/>
			<path class="st1" d="M271.1,233h2.3v25.2h-2.3V233z"/>
			<path class="st1" d="M278,233h2.5l7.3,22.3l7.3-22.3h2.5l-8.5,25.2h-2.6L278,233z"/>
			<path class="st1" d="M302.2,233H317v2.2h-12.5v8.7h11.3v2.2h-11.3v10H317v2.2h-14.8V233z"/>
			<path class="st1" d="M323.9,249.9c0.3,2.2,1.3,6.7,7.4,6.7c3.4,0,6.4-1.5,6.4-5.2c0-3.2-1.6-4.6-6.2-5.8c-4.5-1.2-8-2.8-8-7
				c0-3.2,2.6-6.1,7.7-6.1c4.2,0,7.1,2.4,8.1,6l-2.1,0.4c-0.4-1.5-1.9-4.3-5.9-4.3c-3.5,0-5.4,1.8-5.4,4c0,3.2,3.5,4,6.5,4.9
				c2.8,0.9,7.8,2.1,7.8,7.9c0,4.3-3.4,7.3-8.7,7.3c-7.3,0-9.1-5.1-9.5-8.5L323.9,249.9z"/>
		</g>
	</g>
</g>
</svg>
