<?xml version="1.0" encoding="utf-8"?>
<!-- Generator: Adobe Illustrator 21.0.2, SVG Export Plug-In . SVG Version: 6.00 Build 0)  -->
<svg version="1.1" id="Ebene_1" xmlns="http://www.w3.org/2000/svg" xmlns:xlink="http://www.w3.org/1999/xlink" x="0px" y="0px"
	 viewBox="0 0 320 160" style="enable-background:new 0 0 320 160;" xml:space="preserve">
<style type="text/css">
	.st0{enable-background:new    ;}
	.st1{fill:#FFFFFF;}
</style>
<title>technology</title>
<g id="Module_28_500plus_1024" transform="translate(-741.000000, -598.000000)">
	<g id="Module_28_500plus_1024_1_" transform="translate(-741.000000, -598.000000)">
		<g id="_x32_5creative" transform="translate(681.000000, 458.000000)">
			<g class="st0">
				<path class="st1" d="M923.7,788.6l-4.5-0.8c0.3-5,3.8-8.6,8.8-8.6c4.6,0,8.5,3.1,8.5,8.2c0,4.1-3,6.2-7.6,7.7
					c-4.6,1.6-4.7,2.6-4.7,5.2h12.5v4.7h-17.7v-4.8c0-4.8,2.2-6.9,7.2-8.7c2.6-0.9,5.4-1.9,5.4-4.1c0-2.1-1.1-3.5-3.7-3.5
					C925.1,783.9,924,785.9,923.7,788.6z"/>
				<path class="st1" d="M947.4,794.7l-4.4-1.4l2.1-13.5h13.2v4.7h-9l-0.6,4.5c0,0,1.3-0.4,3-0.4c5,0,8.7,3.1,8.7,8.5
					s-3.7,8.5-9.1,8.5c-5.1,0-8.4-3.1-9.1-7.5l4.5-1.1c0.4,2.3,1.5,3.9,4.6,3.9c1,0,4.2-0.3,4.2-3.9c0-3.5-2.9-4.2-4.2-4.2
					C949.9,792.8,948.3,793.1,947.4,794.7z"/>
				<path class="st1" d="M965,792c0-8.7,3.7-12.7,9.3-12.7c5.6,0,9.3,4.1,9.3,12.7c0,9.6-3.7,13.5-9.3,13.5
					C968.8,805.5,965,801.6,965,792z M974.3,783.9c-3.1,0-4.5,2.1-4.5,8.1c0,6.9,1.3,8.9,4.5,8.9c3.1,0,4.5-1.9,4.5-8.9
					C978.8,786,977.5,783.9,974.3,783.9z"/>
				<path class="st1" d="M997.6,796.1v5.5h-4.9v-5.5h-5.4v-4.7h5.4v-5.5h4.9v5.5h5.4v4.7H997.6z"/>
			</g>
			<g class="st0">
				<path class="st1" d="M855.9,831h8.3c5.3,0,9.3,3.4,9.3,12.6c0,9.3-4,12.6-9.3,12.6h-8.3V831z M864.1,854.1
					c4.3,0,6.9-2.1,6.9-10.4c0-8.4-2.7-10.4-6.9-10.4h-5.9v20.9H864.1z"/>
				<path class="st1" d="M879.6,831h14.8v2.2H882v8.7h11.3v2.2H882v10h12.5v2.2h-14.8V831z"/>
				<path class="st1" d="M897.9,831h2.5l7.3,22.3l7.3-22.3h2.5l-8.5,25.2h-2.6L897.9,831z"/>
				<path class="st1" d="M922.1,831h14.8v2.2h-12.5v8.7h11.3v2.2h-11.3v10h12.5v2.2h-14.8V831z"/>
				<path class="st1" d="M942.9,831h2.3v23h11.8v2.2h-14.1V831z"/>
				<path class="st1" d="M961.3,843.6c0-9.4,3.6-13.1,8.9-13.1c5.4,0,8.9,3.8,8.9,13.1c0,9.4-3.6,13.1-8.9,13.1
					C964.9,856.8,961.3,853,961.3,843.6z M976.7,843.6c0-8.2-2.2-11-6.6-11c-4.2,0-6.6,2.8-6.6,11c0,8.1,2.3,11,6.6,11
					C974.5,854.6,976.7,851.8,976.7,843.6z"/>
				<path class="st1" d="M985.5,831h9c4,0,7.3,3.2,7.3,7.3s-3,7.4-7.3,7.4h-6.6v10.5h-2.3V831z M994.4,843.6c2.9,0,4.9-2.4,4.9-5.2
					c0-3.4-2.5-5.2-4.9-5.2h-6.6v10.4H994.4z"/>
				<path class="st1" d="M1006.5,831h14.8v2.2h-12.5v8.7h11.3v2.2h-11.3v10h12.5v2.2h-14.8V831z"/>
				<path class="st1" d="M1027.3,831h8.5c3.8,0,7.1,3,7.1,7c0,3.7-2.2,5.9-5.1,6.7l5.4,11.4h-2.5l-5.3-11.1h-5.8v11.1h-2.3V831z
					 M1035.8,842.9c1.4,0,4.8-0.7,4.8-4.8c0-3.2-2.4-4.9-4.8-4.9h-6.2v9.8H1035.8z"/>
				<path class="st1" d="M1050,847.9c0.3,2.2,1.3,6.7,7.4,6.7c3.4,0,6.4-1.5,6.4-5.2c0-3.2-1.6-4.6-6.2-5.8c-4.5-1.2-8-2.8-8-7
					c0-3.2,2.6-6.1,7.7-6.1c4.2,0,7.1,2.4,8.1,6l-2.1,0.4c-0.4-1.5-1.9-4.3-5.9-4.3c-3.5,0-5.4,1.8-5.4,4c0,3.2,3.5,4,6.5,4.9
					c2.8,0.9,7.8,2.1,7.8,7.9c0,4.3-3.4,7.3-8.7,7.3c-7.3,0-9.1-5.1-9.5-8.5L1050,847.9z"/>
			</g>
		</g>
	</g>
</g>
</svg>
